<svg width="58" height="42" viewBox="0 0 58 42" fill="none" xmlns="http://www.w3.org/2000/svg">
<path d="M0.5 13.317C0.5 28.8486 13.0615 41.4435 28.5805 41.4975C28.6397 41.5005 28.699 41.5008 28.7581 41.4984C44.2871 41.4562 56.8604 28.8568 56.8604 13.3179C56.8604 12.2371 55.9843 11.361 54.9036 11.361C52.0775 11.361 49.3163 11.7797 46.6919 12.5777C46.4248 9.83212 45.7542 7.12682 44.6799 4.53176C44.2666 3.53351 43.1225 3.05908 42.1241 3.47192C39.5288 4.54502 37.1399 5.98432 35.0104 7.73808C33.7317 5.34208 32.0826 3.09225 30.0635 1.07316C29.2993 0.308948 28.0603 0.308949 27.2961 1.07316C25.2767 3.09248 23.6274 5.34261 22.3487 7.73892C20.2173 5.9852 17.8297 4.54626 15.2349 3.47196C14.2363 3.05855 13.0917 3.53291 12.6783 4.53147C11.6046 7.12486 10.9351 9.8297 10.6687 12.5768C8.04428 11.7788 5.28297 11.3601 2.45688 11.3601C1.37612 11.3601 0.5 12.2363 0.5 13.317ZM45.7673 17.0535C48.0089 16.1424 50.3959 15.5655 52.8621 15.3597C51.9524 26.2845 43.8063 35.1534 33.2301 37.1591C36.4548 32.5622 38.1464 27.2183 38.3056 21.8387C40.412 19.8634 42.8334 18.2907 45.4606 17.1806C45.5671 17.1468 45.6696 17.1041 45.7673 17.0535ZM42.878 14.0491C41.1713 14.8551 39.5473 15.8328 38.0299 16.969C37.7622 15.1066 37.3078 13.2657 36.6668 11.4765C38.2018 10.0904 39.9111 8.90463 41.7659 7.94794C42.4002 9.93625 42.7707 11.9826 42.878 14.0491ZM28.6798 5.34397C30.3008 7.25939 31.5773 9.36625 32.5096 11.5833C32.5387 11.6709 32.5742 11.7569 32.616 11.8406C33.8013 14.7529 34.3975 17.8493 34.4042 20.9472C34.4033 20.9815 34.4033 21.0158 34.4042 21.0501C34.3928 26.6075 32.4845 32.1602 28.6798 36.656C24.8813 32.1676 22.973 26.6257 22.9553 21.0772C22.9574 21.0241 22.9574 20.9714 22.9554 20.919C22.9656 17.8352 23.56 14.7535 24.7381 11.8539C24.7853 11.7614 24.8247 11.6659 24.8562 11.5686C25.7879 9.35696 27.0623 7.25517 28.6798 5.34397ZM11.9036 17.1813C14.529 18.2912 16.9487 19.863 19.0539 21.837C19.2128 27.2167 20.9041 32.5608 24.1286 37.1579C13.5532 35.1515 5.40803 26.2831 4.49839 15.3588C6.96363 15.5646 9.34981 16.1411 11.5906 17.0516C11.6902 17.1034 11.7948 17.147 11.9036 17.1813ZM15.5922 7.94851C17.4461 8.90534 19.1549 10.0905 20.6927 11.4767C20.0519 13.2654 19.5976 15.1058 19.3299 16.9676C17.8128 15.8317 16.1892 14.8543 14.4829 14.0484C14.5898 11.9806 14.9593 9.93484 15.5922 7.94851Z" fill="white" stroke="white"/>
</svg>
