<svg width="329" height="53" viewBox="0 0 329 53" fill="none" xmlns="http://www.w3.org/2000/svg">
<path d="M96.8358 5.22002C97.5558 5.14802 98.0718 5.26802 98.3838 5.58002C98.7198 5.86802 98.8878 6.33602 98.8878 6.98402C98.8878 7.72802 98.6838 8.29202 98.2758 8.67602C97.8918 9.06002 97.2078 9.30002 96.2238 9.39602C94.3998 9.58802 92.7198 9.72002 91.1838 9.79202C89.6478 9.84002 87.4998 9.86402 84.7398 9.86402H84.6678C83.6358 15.048 82.8198 19.476 82.2198 23.148C81.9318 24.9 81.6438 26.844 81.3558 28.98C81.0918 31.092 80.9118 32.772 80.8158 34.02C80.7678 34.716 80.4798 35.256 79.9518 35.64C79.4238 36 78.7878 36.18 78.0438 36.18C77.2518 36.18 76.6398 35.988 76.2078 35.604C75.7758 35.22 75.5598 34.716 75.5598 34.092C75.5598 33.516 75.6438 32.568 75.8118 31.248C76.0038 29.904 76.2198 28.5 76.4598 27.036C76.7238 25.572 76.9278 24.3 77.0718 23.22C77.4558 20.604 78.0558 17.28 78.8718 13.248L79.5198 10.08C77.4078 10.296 75.8838 10.716 74.9478 11.34C74.0118 11.94 73.5438 12.804 73.5438 13.932C73.5438 14.748 73.7838 15.528 74.2638 16.272C74.4078 16.488 74.4798 16.704 74.4798 16.92C74.4798 17.352 74.2398 17.736 73.7598 18.072C73.2798 18.384 72.7398 18.54 72.1398 18.54C71.4918 18.54 70.9398 18.348 70.4838 17.964C70.1478 17.676 69.8598 17.148 69.6198 16.38C69.3798 15.588 69.2598 14.796 69.2598 14.004C69.2598 11.1 70.5438 8.97602 73.1118 7.63202C75.6798 6.26402 79.6758 5.58002 85.0998 5.58002C88.1238 5.58002 90.4518 5.55602 92.0838 5.50802C93.7398 5.46002 95.3238 5.36402 96.8358 5.22002Z" fill="white"/>
<path d="M97.0073 36.18C95.5193 36.18 94.3313 35.64 93.4433 34.56C92.5553 33.48 92.1113 32.064 92.1113 30.312C92.1113 28.392 92.5553 26.58 93.4433 24.876C94.3313 23.148 95.5073 21.768 96.9713 20.736C98.4593 19.68 100.031 19.152 101.687 19.152C102.215 19.152 102.563 19.26 102.731 19.476C102.923 19.668 103.079 20.028 103.199 20.556C103.703 20.46 104.231 20.412 104.783 20.412C105.959 20.412 106.547 20.832 106.547 21.672C106.547 22.176 106.367 23.376 106.007 25.272C105.455 28.032 105.179 29.952 105.179 31.032C105.179 31.392 105.263 31.68 105.431 31.896C105.623 32.112 105.863 32.22 106.151 32.22C106.607 32.22 107.159 31.932 107.807 31.356C108.455 30.756 109.331 29.796 110.435 28.476C110.723 28.14 111.047 27.972 111.407 27.972C111.719 27.972 111.959 28.116 112.127 28.404C112.319 28.692 112.415 29.088 112.415 29.592C112.415 30.552 112.187 31.296 111.731 31.824C110.747 33.048 109.703 34.08 108.599 34.92C107.495 35.76 106.427 36.18 105.395 36.18C104.603 36.18 103.871 35.916 103.199 35.388C102.551 34.836 102.059 34.092 101.723 33.156C100.475 35.172 98.9033 36.18 97.0073 36.18ZM98.3033 32.544C98.8313 32.544 99.3353 32.232 99.8153 31.608C100.295 30.984 100.643 30.156 100.859 29.124L102.191 22.5C101.183 22.524 100.247 22.908 99.3833 23.652C98.5433 24.372 97.8713 25.332 97.3673 26.532C96.8633 27.732 96.6113 29.004 96.6113 30.348C96.6113 31.092 96.7553 31.644 97.0433 32.004C97.3553 32.364 97.7753 32.544 98.3033 32.544Z" fill="white"/>
<path d="M128.713 27.972C129.025 27.972 129.265 28.116 129.433 28.404C129.625 28.692 129.721 29.088 129.721 29.592C129.721 30.552 129.493 31.296 129.037 31.824C128.005 33.096 126.889 34.14 125.689 34.956C124.513 35.772 123.169 36.18 121.657 36.18C120.385 36.18 119.353 35.724 118.561 34.812C117.193 35.7 115.765 36.156 114.277 36.18C113.965 40.812 113.257 44.676 112.153 47.772C111.049 50.892 109.429 52.452 107.293 52.452C105.997 52.452 105.037 51.984 104.413 51.048C103.789 50.112 103.477 48.816 103.477 47.16C103.477 44.808 104.017 42.06 105.097 38.916C106.177 35.796 107.845 32.352 110.101 28.584C110.101 25.08 110.077 22.644 110.029 21.276C110.005 20.58 110.281 20.028 110.857 19.62C111.433 19.212 112.153 19.008 113.017 19.008C113.521 19.008 113.881 19.116 114.097 19.332C114.337 19.524 114.469 19.92 114.493 20.52C114.493 21.12 114.505 21.564 114.529 21.852C115.297 20.892 116.053 20.208 116.797 19.8C117.541 19.368 118.333 19.152 119.173 19.152C120.517 19.152 121.609 19.692 122.449 20.772C123.313 21.852 123.745 23.268 123.745 25.02C123.745 26.292 123.541 27.528 123.133 28.728C122.725 29.928 122.161 31.02 121.441 32.004C121.945 32.148 122.365 32.22 122.701 32.22C123.493 32.22 124.249 31.932 124.969 31.356C125.689 30.78 126.613 29.82 127.741 28.476C128.029 28.14 128.353 27.972 128.713 27.972ZM114.457 32.724C115.321 32.532 116.113 32.064 116.833 31.32C117.577 30.552 118.165 29.616 118.597 28.512C119.029 27.384 119.245 26.208 119.245 24.984C119.245 24.264 119.101 23.724 118.813 23.364C118.525 22.98 118.141 22.788 117.661 22.788C116.797 22.788 115.753 23.7 114.529 25.524C114.505 26.58 114.493 28.128 114.493 30.168C114.493 31.272 114.481 32.124 114.457 32.724ZM107.581 48.924C108.229 48.924 108.769 47.508 109.201 44.676C109.633 41.868 109.909 38.364 110.029 34.164C108.997 36.564 108.181 38.856 107.581 41.04C106.981 43.224 106.681 45.06 106.681 46.548C106.681 47.316 106.777 47.904 106.969 48.312C107.137 48.72 107.341 48.924 107.581 48.924Z" fill="white"/>
<path d="M155.154 27.972C155.466 27.972 155.706 28.116 155.874 28.404C156.066 28.692 156.162 29.088 156.162 29.592C156.162 30.576 155.934 31.332 155.478 31.86C154.374 33.156 153.294 34.2 152.238 34.992C151.206 35.784 150.066 36.18 148.818 36.18C147.546 36.18 146.634 35.7 146.082 34.74C145.53 33.78 145.254 32.388 145.254 30.564C145.254 28.98 145.446 27 145.83 24.624H145.758C145.158 25.656 144.594 26.82 144.066 28.116C143.538 29.412 142.95 30.948 142.302 32.724L141.69 34.344C141.426 35.064 141.114 35.556 140.754 35.82C140.394 36.06 139.962 36.18 139.458 36.18C138.93 36.18 138.546 36.036 138.306 35.748C138.066 35.46 137.85 35.004 137.658 34.38C137.442 33.66 137.262 32.676 137.118 31.428C136.974 30.156 136.902 28.872 136.902 27.576C136.902 26.784 136.938 26.028 137.01 25.308H136.938C136.338 27.636 135.75 29.556 135.174 31.068C134.598 32.556 133.818 33.78 132.834 34.74C131.85 35.676 130.602 36.144 129.09 36.144C127.818 36.144 126.834 35.7 126.138 34.812C125.466 33.924 125.13 32.808 125.13 31.464C125.13 30.264 125.406 29.268 125.958 28.476C126.51 27.66 127.29 27.252 128.298 27.252C129.258 27.252 129.738 27.576 129.738 28.224C129.738 28.344 129.726 28.44 129.702 28.512C129.51 29.664 129.414 30.48 129.414 30.96C129.414 31.776 129.594 32.184 129.954 32.184C130.29 32.184 130.626 31.944 130.962 31.464C131.298 30.96 131.766 29.88 132.366 28.224C133.182 25.992 133.95 23.712 134.67 21.384C134.91 20.64 135.258 20.1 135.714 19.764C136.194 19.404 136.83 19.224 137.622 19.224C138.294 19.224 138.846 19.356 139.278 19.62C139.734 19.884 139.962 20.316 139.962 20.916C139.962 24.396 140.046 27.048 140.214 28.872H140.286C140.694 27.504 141.33 25.932 142.194 24.156C143.058 22.38 143.742 21.216 144.246 20.664C144.702 20.184 145.158 19.824 145.614 19.584C146.094 19.32 146.622 19.188 147.198 19.188C148.062 19.188 148.65 19.38 148.962 19.764C149.274 20.124 149.43 20.808 149.43 21.816C149.43 22.368 149.418 22.92 149.394 23.472C149.37 24 149.346 24.492 149.322 24.948C149.226 26.724 149.178 28.044 149.178 28.908C149.178 30.276 149.274 31.2 149.466 31.68C149.658 32.16 150.018 32.4 150.546 32.4C151.506 32.4 152.718 31.14 154.182 28.62C154.446 28.188 154.77 27.972 155.154 27.972Z" fill="white"/>
<path d="M171.619 24.948C171.931 24.948 172.171 25.104 172.339 25.416C172.507 25.728 172.591 26.124 172.591 26.604C172.591 27.756 172.243 28.44 171.547 28.656C170.107 29.16 168.523 29.448 166.795 29.52C166.339 31.536 165.439 33.156 164.095 34.38C162.751 35.58 161.227 36.18 159.523 36.18C158.083 36.18 156.847 35.832 155.815 35.136C154.807 34.44 154.039 33.516 153.511 32.364C152.983 31.212 152.719 29.964 152.719 28.62C152.719 26.796 153.067 25.176 153.763 23.76C154.459 22.32 155.419 21.204 156.643 20.412C157.867 19.596 159.223 19.188 160.711 19.188C162.535 19.188 163.999 19.824 165.103 21.096C166.231 22.344 166.891 23.892 167.083 25.74C168.211 25.668 169.555 25.428 171.115 25.02C171.307 24.972 171.475 24.948 171.619 24.948ZM159.811 32.364C160.579 32.364 161.239 32.052 161.791 31.428C162.367 30.804 162.751 29.904 162.943 28.728C162.199 28.224 161.623 27.564 161.215 26.748C160.831 25.932 160.639 25.068 160.639 24.156C160.639 23.772 160.675 23.388 160.747 23.004H160.567C159.607 23.004 158.803 23.472 158.155 24.408C157.531 25.32 157.219 26.616 157.219 28.296C157.219 29.616 157.471 30.624 157.975 31.32C158.503 32.016 159.115 32.364 159.811 32.364Z" fill="white"/>
<path d="M188.509 27.972C188.821 27.972 189.061 28.116 189.229 28.404C189.421 28.692 189.517 29.088 189.517 29.592C189.517 30.552 189.289 31.296 188.833 31.824C187.729 33.096 186.589 34.14 185.413 34.956C184.261 35.772 182.941 36.18 181.453 36.18C180.205 36.18 179.329 35.796 178.825 35.028C178.321 34.26 178.069 33.108 178.069 31.572C178.069 30.924 178.129 30.144 178.249 29.232C176.137 29.232 174.673 29.208 173.857 29.16C173.809 29.832 173.785 30.3 173.785 30.564V31.32C173.761 32.808 173.725 33.852 173.677 34.452C173.629 35.052 173.485 35.496 173.245 35.784C173.005 36.048 172.609 36.18 172.057 36.18C171.145 36.18 170.497 35.7 170.113 34.74C169.753 33.78 169.573 32.244 169.573 30.132C169.573 27.012 170.017 24.048 170.905 21.24C171.121 20.544 171.469 20.04 171.949 19.728C172.429 19.392 173.125 19.224 174.037 19.224C174.517 19.224 174.853 19.284 175.045 19.404C175.237 19.524 175.333 19.752 175.333 20.088C175.333 20.472 175.153 21.336 174.793 22.68C174.601 23.472 174.421 24.432 174.253 25.56H178.861C179.101 24.432 179.449 22.992 179.905 21.24C180.097 20.52 180.385 20.004 180.769 19.692C181.177 19.38 181.777 19.224 182.569 19.224C183.121 19.224 183.505 19.296 183.721 19.44C183.937 19.56 184.045 19.8 184.045 20.16C184.045 20.76 183.745 22.404 183.145 25.092C182.473 28.164 182.137 30.06 182.137 30.78C182.137 31.236 182.233 31.596 182.425 31.86C182.617 32.1 182.869 32.22 183.181 32.22C183.661 32.22 184.225 31.932 184.873 31.356C185.545 30.756 186.433 29.796 187.537 28.476C187.825 28.14 188.149 27.972 188.509 27.972Z" fill="white"/>
<path d="M190.259 36.18C189.179 36.18 188.291 35.688 187.595 34.704C186.923 33.696 186.587 32.448 186.587 30.96C186.587 29.16 186.707 27.516 186.947 26.028C187.187 24.516 187.583 22.92 188.135 21.24C188.375 20.52 188.711 20.004 189.143 19.692C189.575 19.38 190.259 19.224 191.195 19.224C191.723 19.224 192.083 19.308 192.275 19.476C192.491 19.644 192.599 19.896 192.599 20.232C192.599 20.424 192.467 21.072 192.203 22.176C191.963 23.064 191.771 23.868 191.627 24.588C191.147 27.108 190.907 28.788 190.907 29.628C190.907 30.132 190.967 30.492 191.087 30.708C191.207 30.9 191.399 30.996 191.663 30.996C192.023 30.996 192.467 30.636 192.995 29.916C193.547 29.196 194.123 28.104 194.723 26.64C195.347 25.176 195.947 23.376 196.523 21.24C196.715 20.52 197.003 20.004 197.387 19.692C197.795 19.38 198.395 19.224 199.187 19.224C199.739 19.224 200.123 19.296 200.339 19.44C200.555 19.56 200.663 19.8 200.663 20.16C200.663 20.76 200.363 22.404 199.763 25.092C199.091 28.164 198.755 30.06 198.755 30.78C198.755 31.236 198.851 31.596 199.043 31.86C199.235 32.1 199.487 32.22 199.799 32.22C200.279 32.22 200.843 31.932 201.491 31.356C202.163 30.756 203.051 29.796 204.155 28.476C204.443 28.14 204.767 27.972 205.127 27.972C205.439 27.972 205.679 28.116 205.847 28.404C206.039 28.692 206.135 29.088 206.135 29.592C206.135 30.552 205.907 31.296 205.451 31.824C204.419 33.096 203.303 34.14 202.103 34.956C200.927 35.772 199.583 36.18 198.071 36.18C196.919 36.18 196.067 35.736 195.515 34.848C194.987 33.96 194.723 32.712 194.723 31.104C194.315 32.736 193.703 33.996 192.887 34.884C192.071 35.748 191.195 36.18 190.259 36.18Z" fill="white"/>
<path d="M224.672 27.972C224.984 27.972 225.224 28.116 225.392 28.404C225.584 28.692 225.68 29.088 225.68 29.592C225.68 30.552 225.452 31.296 224.996 31.824C223.748 33.288 222.548 34.38 221.396 35.1C220.244 35.82 219.104 36.18 217.976 36.18C216.992 36.18 216.236 35.832 215.708 35.136C215.18 34.44 214.916 33.444 214.916 32.148C214.916 31.452 214.988 30.696 215.132 29.88H215.06C212.828 34.08 209.984 36.18 206.528 36.18C205.04 36.18 203.828 35.748 202.892 34.884C201.98 34.02 201.524 32.88 201.524 31.464C201.524 30.216 201.8 29.232 202.352 28.512C202.928 27.792 203.708 27.432 204.692 27.432C205.556 27.432 205.988 27.78 205.988 28.476C205.988 28.572 205.964 28.74 205.916 28.98C205.868 29.364 205.844 29.652 205.844 29.844C205.844 30.612 206.012 31.248 206.348 31.752C206.684 32.256 207.14 32.508 207.716 32.508C208.46 32.508 209.216 32.28 209.984 31.824C210.752 31.344 211.508 30.672 212.252 29.808H211.784C210.344 29.808 209.192 29.352 208.328 28.44C207.488 27.528 207.068 26.304 207.068 24.768C207.068 22.992 207.584 21.624 208.616 20.664C209.648 19.68 211.088 19.188 212.936 19.188C214.232 19.188 215.564 19.392 216.932 19.8C217.196 19.44 217.748 19.26 218.588 19.26C219.068 19.26 219.44 19.38 219.704 19.62C219.992 19.836 220.112 20.136 220.064 20.52C220.016 21.12 219.8 22.188 219.416 23.724C219.056 25.26 218.78 26.58 218.588 27.684C218.396 28.788 218.3 29.82 218.3 30.78C218.3 31.236 218.384 31.596 218.552 31.86C218.744 32.1 219.008 32.22 219.344 32.22C219.8 32.22 220.352 31.944 221 31.392C221.648 30.84 222.548 29.868 223.7 28.476C223.964 28.14 224.288 27.972 224.672 27.972ZM214.16 27.036C214.976 25.62 215.624 24.108 216.104 22.5C215.24 22.236 214.472 22.104 213.8 22.104C212.84 22.104 212.096 22.332 211.568 22.788C211.04 23.244 210.776 23.892 210.776 24.732C210.776 25.404 210.992 25.968 211.424 26.424C211.88 26.88 212.444 27.108 213.116 27.108C213.428 27.108 213.776 27.084 214.16 27.036Z" fill="white"/>
<path d="M261.81 12.96C261.81 15 261.09 16.764 259.65 18.252C258.21 19.716 256.11 20.772 253.35 21.42C254.838 21.828 255.966 22.5 256.734 23.436C257.502 24.348 257.886 25.404 257.886 26.604C257.886 28.5 257.286 30.144 256.086 31.536C254.91 32.928 253.182 34.008 250.902 34.776C248.622 35.52 245.874 35.892 242.658 35.892C241.458 35.892 240.498 35.856 239.778 35.784C239.754 36.456 239.466 36.96 238.914 37.296C238.362 37.632 237.654 37.8 236.79 37.8C235.926 37.8 235.326 37.608 234.99 37.224C234.678 36.84 234.546 36.276 234.594 35.532C234.81 32.172 235.23 28.656 235.854 24.984C236.478 21.288 237.27 17.724 238.23 14.292C238.398 13.692 238.734 13.272 239.238 13.032C239.742 12.792 240.402 12.672 241.218 12.672C242.682 12.672 243.414 13.08 243.414 13.896C243.414 14.232 243.342 14.616 243.198 15.048C242.574 16.92 241.95 19.464 241.326 22.68C240.702 25.872 240.258 28.92 239.994 31.824C241.146 31.92 242.082 31.968 242.802 31.968C246.162 31.968 248.622 31.488 250.182 30.528C251.766 29.544 252.558 28.296 252.558 26.784C252.558 25.728 252.102 24.84 251.19 24.12C250.302 23.4 248.802 23.004 246.69 22.932C246.21 22.908 245.874 22.788 245.682 22.572C245.49 22.356 245.394 22.008 245.394 21.528C245.394 20.832 245.538 20.268 245.826 19.836C246.114 19.404 246.642 19.176 247.41 19.152C249.114 19.104 250.65 18.852 252.018 18.396C253.41 17.94 254.502 17.304 255.294 16.488C256.086 15.648 256.482 14.676 256.482 13.572C256.482 12.18 255.798 11.088 254.43 10.296C253.062 9.48002 250.962 9.07202 248.13 9.07202C245.562 9.07202 243.078 9.40802 240.678 10.08C238.278 10.728 236.238 11.556 234.558 12.564C233.79 13.02 233.142 13.248 232.614 13.248C232.182 13.248 231.846 13.104 231.606 12.816C231.39 12.504 231.282 12.12 231.282 11.664C231.282 11.064 231.402 10.548 231.642 10.116C231.906 9.68402 232.518 9.19202 233.478 8.64002C235.494 7.48802 237.858 6.58802 240.57 5.94002C243.282 5.29202 246.054 4.96802 248.886 4.96802C253.23 4.96802 256.47 5.70002 258.606 7.16402C260.742 8.62802 261.81 10.56 261.81 12.96Z" fill="white"/>
<path d="M263.92 36.18C263.008 36.18 262.36 35.7 261.976 34.74C261.616 33.78 261.436 32.244 261.436 30.132C261.436 27.012 261.88 24.048 262.768 21.24C262.984 20.544 263.332 20.04 263.812 19.728C264.316 19.392 265.012 19.224 265.9 19.224C266.38 19.224 266.716 19.284 266.908 19.404C267.1 19.524 267.196 19.752 267.196 20.088C267.196 20.472 267.016 21.336 266.656 22.68C266.608 22.848 266.5 23.232 266.332 23.832C266.188 24.432 266.044 25.14 265.9 25.956C265.781 26.748 265.696 27.624 265.648 28.584C266.512 25.224 267.604 22.824 268.924 21.384C270.244 19.944 271.84 19.224 273.712 19.224C274.96 19.224 275.932 19.62 276.628 20.412C277.348 21.18 277.708 22.176 277.708 23.4C277.708 24.408 277.48 25.26 277.024 25.956C276.592 26.652 276.016 27 275.296 27C274.84 27 274.468 26.892 274.18 26.676C273.916 26.46 273.784 26.16 273.784 25.776C273.784 25.608 273.808 25.416 273.856 25.2C273.904 24.984 273.94 24.828 273.964 24.732C274.084 24.372 274.144 24.036 274.144 23.724C274.144 23.076 273.832 22.752 273.208 22.752C272.729 22.752 272.26 23.004 271.804 23.508C271.348 23.988 270.976 24.648 270.688 25.488C270.424 26.304 270.292 27.192 270.292 28.152C270.292 29.448 270.592 30.492 271.192 31.284C271.792 32.052 272.656 32.436 273.784 32.436C274.672 32.436 275.464 32.148 276.16 31.572C276.856 30.972 277.816 29.94 279.04 28.476C279.328 28.14 279.652 27.972 280.012 27.972C280.324 27.972 280.564 28.116 280.732 28.404C280.924 28.692 281.02 29.088 281.02 29.592C281.02 30.552 280.792 31.296 280.336 31.824C279.256 33.12 278.176 34.176 277.096 34.992C276.016 35.784 274.792 36.18 273.424 36.18C272.296 36.18 271.264 35.94 270.328 35.46C269.416 34.956 268.673 34.356 268.096 33.66C267.52 32.964 267.148 32.292 266.98 31.644C266.932 31.836 266.752 32.508 266.44 33.66C266.176 34.62 265.864 35.28 265.504 35.64C265.168 36 264.64 36.18 263.92 36.18Z" fill="white"/>
<path d="M296.531 28.044C296.843 28.044 297.083 28.2 297.251 28.512C297.443 28.8 297.539 29.172 297.539 29.628C297.539 30.18 297.455 30.612 297.287 30.924C297.119 31.236 296.855 31.512 296.495 31.752L289.583 36.396C288.671 41.364 287.471 45.264 285.983 48.096C284.519 50.952 282.647 52.38 280.367 52.38C279.143 52.38 278.147 51.996 277.379 51.228C276.611 50.484 276.227 49.5 276.227 48.276C276.227 47.148 276.479 45.996 276.983 44.82C277.511 43.644 278.471 42.288 279.863 40.752C281.279 39.24 283.271 37.5 285.839 35.532L285.947 34.704C286.115 33.816 286.307 32.544 286.523 30.888C286.043 32.616 285.371 33.936 284.507 34.848C283.643 35.736 282.731 36.18 281.771 36.18C280.691 36.18 279.803 35.688 279.107 34.704C278.435 33.696 278.099 32.448 278.099 30.96C278.099 29.16 278.219 27.516 278.459 26.028C278.699 24.516 279.095 22.92 279.647 21.24C279.887 20.52 280.223 20.004 280.655 19.692C281.087 19.38 281.771 19.224 282.707 19.224C283.235 19.224 283.595 19.308 283.787 19.476C284.003 19.644 284.111 19.896 284.111 20.232C284.111 20.424 283.979 21.072 283.715 22.176C283.475 23.064 283.283 23.868 283.139 24.588C282.947 25.572 282.779 26.52 282.635 27.432C282.491 28.32 282.419 29.052 282.419 29.628C282.419 30.54 282.671 30.996 283.175 30.996C283.535 30.996 283.979 30.636 284.507 29.916C285.059 29.196 285.635 28.104 286.235 26.64C286.859 25.176 287.459 23.376 288.035 21.24C288.227 20.52 288.515 20.004 288.899 19.692C289.307 19.38 289.907 19.224 290.699 19.224C291.251 19.224 291.635 19.296 291.851 19.44C292.067 19.584 292.175 19.824 292.175 20.16C292.175 20.76 291.863 22.824 291.239 26.352L290.303 32.148C292.151 30.756 293.951 29.484 295.703 28.332C296.015 28.14 296.291 28.044 296.531 28.044ZM280.763 48.888C281.363 48.888 282.035 48.192 282.779 46.8C283.523 45.408 284.267 43.092 285.011 39.852C283.163 41.412 281.819 42.828 280.979 44.1C280.163 45.396 279.755 46.524 279.755 47.484C279.755 47.892 279.827 48.228 279.971 48.492C280.139 48.756 280.403 48.888 280.763 48.888Z" fill="white"/>
<path d="M302.201 36.18C299.849 36.18 298.013 35.52 296.693 34.2C295.397 32.856 294.749 31.092 294.749 28.908C294.749 26.964 295.133 25.26 295.901 23.796C296.669 22.332 297.665 21.204 298.889 20.412C300.113 19.62 301.397 19.224 302.741 19.224C304.061 19.224 305.081 19.62 305.801 20.412C306.545 21.18 306.917 22.176 306.917 23.4C306.917 24.408 306.689 25.26 306.233 25.956C305.801 26.652 305.225 27 304.505 27C304.049 27 303.677 26.892 303.389 26.676C303.125 26.46 302.993 26.16 302.993 25.776C302.993 25.608 303.017 25.416 303.065 25.2C303.113 24.984 303.149 24.828 303.173 24.732C303.293 24.372 303.353 24.036 303.353 23.724C303.353 23.412 303.269 23.172 303.101 23.004C302.957 22.836 302.741 22.752 302.453 22.752C301.901 22.752 301.385 23.004 300.905 23.508C300.425 23.988 300.041 24.648 299.753 25.488C299.465 26.328 299.321 27.252 299.321 28.26C299.321 31.044 300.533 32.436 302.957 32.436C303.941 32.436 304.997 32.112 306.125 31.464C307.277 30.792 308.405 29.796 309.509 28.476C309.797 28.14 310.121 27.972 310.481 27.972C310.793 27.972 311.033 28.116 311.201 28.404C311.393 28.692 311.489 29.088 311.489 29.592C311.489 30.504 311.261 31.248 310.805 31.824C309.677 33.216 308.321 34.296 306.737 35.064C305.177 35.808 303.665 36.18 302.201 36.18Z" fill="white"/>
<path d="M312.656 36.18C311.168 36.18 309.98 35.64 309.092 34.56C308.204 33.48 307.76 32.064 307.76 30.312C307.76 28.392 308.204 26.58 309.092 24.876C309.98 23.148 311.156 21.768 312.62 20.736C314.108 19.68 315.68 19.152 317.336 19.152C317.864 19.152 318.212 19.26 318.38 19.476C318.572 19.668 318.728 20.028 318.848 20.556C319.352 20.46 319.88 20.412 320.432 20.412C321.608 20.412 322.196 20.832 322.196 21.672C322.196 22.176 322.016 23.376 321.656 25.272C321.104 28.032 320.828 29.952 320.828 31.032C320.828 31.392 320.912 31.68 321.08 31.896C321.272 32.112 321.512 32.22 321.8 32.22C322.256 32.22 322.808 31.932 323.456 31.356C324.104 30.756 324.98 29.796 326.084 28.476C326.372 28.14 326.696 27.972 327.056 27.972C327.368 27.972 327.608 28.116 327.776 28.404C327.968 28.692 328.064 29.088 328.064 29.592C328.064 30.552 327.836 31.296 327.38 31.824C326.396 33.048 325.352 34.08 324.248 34.92C323.144 35.76 322.076 36.18 321.044 36.18C320.252 36.18 319.52 35.916 318.848 35.388C318.2 34.836 317.708 34.092 317.372 33.156C316.124 35.172 314.552 36.18 312.656 36.18ZM313.952 32.544C314.48 32.544 314.984 32.232 315.464 31.608C315.944 30.984 316.292 30.156 316.508 29.124L317.84 22.5C316.832 22.524 315.896 22.908 315.032 23.652C314.192 24.372 313.52 25.332 313.016 26.532C312.512 27.732 312.26 29.004 312.26 30.348C312.26 31.092 312.404 31.644 312.692 32.004C313.004 32.364 313.424 32.544 313.952 32.544Z" fill="white"/>
<path d="M0.5 13.317C0.5 28.8486 13.0615 41.4435 28.5805 41.4975C28.6397 41.5005 28.699 41.5008 28.7581 41.4984C44.2871 41.4562 56.8604 28.8568 56.8604 13.3179C56.8604 12.2371 55.9843 11.361 54.9036 11.361C52.0775 11.361 49.3163 11.7797 46.6919 12.5777C46.4248 9.83212 45.7542 7.12682 44.6799 4.53176C44.2666 3.53351 43.1225 3.05908 42.1241 3.47192C39.5288 4.54502 37.1399 5.98432 35.0104 7.73808C33.7317 5.34208 32.0826 3.09225 30.0635 1.07316C29.2993 0.308948 28.0603 0.308949 27.2961 1.07316C25.2767 3.09248 23.6274 5.34261 22.3487 7.73892C20.2173 5.9852 17.8297 4.54626 15.2349 3.47196C14.2363 3.05855 13.0917 3.53291 12.6783 4.53147C11.6046 7.12486 10.9351 9.8297 10.6687 12.5768C8.04428 11.7788 5.28297 11.3601 2.45688 11.3601C1.37612 11.3601 0.5 12.2363 0.5 13.317ZM45.7673 17.0535C48.0089 16.1424 50.3959 15.5655 52.8621 15.3597C51.9524 26.2845 43.8063 35.1534 33.2301 37.1591C36.4548 32.5622 38.1464 27.2183 38.3056 21.8387C40.412 19.8634 42.8334 18.2907 45.4606 17.1806C45.5671 17.1468 45.6696 17.1041 45.7673 17.0535ZM42.878 14.0491C41.1713 14.8551 39.5473 15.8328 38.0299 16.969C37.7622 15.1066 37.3078 13.2657 36.6668 11.4765C38.2018 10.0904 39.9111 8.90463 41.7659 7.94794C42.4002 9.93625 42.7707 11.9826 42.878 14.0491ZM28.6798 5.34397C30.3008 7.25939 31.5773 9.36625 32.5096 11.5833C32.5387 11.6709 32.5742 11.7569 32.616 11.8406C33.8013 14.7529 34.3975 17.8493 34.4042 20.9472C34.4033 20.9815 34.4033 21.0158 34.4042 21.0501C34.3928 26.6075 32.4845 32.1602 28.6798 36.656C24.8813 32.1676 22.973 26.6257 22.9553 21.0772C22.9574 21.0241 22.9574 20.9714 22.9554 20.919C22.9656 17.8352 23.56 14.7535 24.7381 11.8539C24.7853 11.7614 24.8247 11.6659 24.8562 11.5686C25.7879 9.35696 27.0623 7.25517 28.6798 5.34397ZM11.9036 17.1813C14.529 18.2912 16.9487 19.863 19.0539 21.837C19.2128 27.2167 20.9041 32.5608 24.1286 37.1579C13.5532 35.1515 5.40803 26.2831 4.49839 15.3588C6.96363 15.5646 9.34981 16.1411 11.5906 17.0516C11.6902 17.1034 11.7948 17.147 11.9036 17.1813ZM15.5922 7.94851C17.4461 8.90534 19.1549 10.0905 20.6927 11.4767C20.0519 13.2654 19.5976 15.1058 19.3299 16.9676C17.8128 15.8317 16.1892 14.8543 14.4829 14.0484C14.5898 11.9806 14.9593 9.93484 15.5922 7.94851Z" fill="white" stroke="white"/>
</svg>
